<?xml version="1.0" encoding="UTF-8" standalone="no"?>
<!-- Created with Inkscape (http://www.inkscape.org/) -->

<svg
   xmlns:dc="http://purl.org/dc/elements/1.1/"
   xmlns:cc="http://creativecommons.org/ns#"
   xmlns:rdf="http://www.w3.org/1999/02/22-rdf-syntax-ns#"
   xmlns:svg="http://www.w3.org/2000/svg"
   xmlns="http://www.w3.org/2000/svg"
   xmlns:sodipodi="http://sodipodi.sourceforge.net/DTD/sodipodi-0.dtd"
   xmlns:inkscape="http://www.inkscape.org/namespaces/inkscape"
   width="45.096699mm"
   height="45.013096mm"
   viewBox="0 0 45.096699 45.013096"
   version="1.1"
   id="svg1444"
   inkscape:version="0.92.3 (2405546, 2018-03-11)"
   sodipodi:docname="logo.svg">
  <defs
     id="defs1438" />
  <sodipodi:namedview
     id="base"
     pagecolor="#ffffff"
     bordercolor="#666666"
     borderopacity="1.0"
     inkscape:pageopacity="0.0"
     inkscape:pageshadow="2"
     inkscape:zoom="1.18125"
     inkscape:cx="-205.06101"
     inkscape:cy="-138.42795"
     inkscape:document-units="mm"
     inkscape:current-layer="layer1"
     showgrid="false"
     fit-margin-top="0"
     fit-margin-left="0"
     fit-margin-right="0"
     fit-margin-bottom="0"
     inkscape:window-width="1920"
     inkscape:window-height="1051"
     inkscape:window-x="1920"
     inkscape:window-y="0"
     inkscape:window-maximized="1" />
  <metadata
     id="metadata1441">
    <rdf:RDF>
      <cc:Work
         rdf:about="">
        <dc:format>image/svg+xml</dc:format>
        <dc:type
           rdf:resource="http://purl.org/dc/dcmitype/StillImage" />
        <dc:title></dc:title>
      </cc:Work>
    </rdf:RDF>
  </metadata>
  <g
     inkscape:label="Capa 1"
     inkscape:groupmode="layer"
     id="layer1"
     transform="translate(-111.48412,-67.19451)">
    <g
       style="display:inline"
       id="g15871"
       transform="matrix(0.63043569,0,0,0.63043569,42.239921,1.6292743)">
      <path
         d="m 109.83547,139.69993 c 0,-19.71626 16.01327,-35.70005 35.7661,-35.70005 19.75315,0 35.76649,15.98366 35.76649,35.70005 0,19.71554 -16.01334,35.69993 -35.76649,35.69993 -19.75283,0 -35.7661,-15.98414 -35.7661,-35.69993 z"
         id="path3037-8"
         inkscape:connector-curvature="0"
         style="fill:#ffd430;fill-opacity:1;stroke-width:0.06514927" />
      <path
         d="m 113.06602,139.69993 c 0,-17.93543 14.5669,-32.47549 32.53559,-32.47549 17.96894,0 32.53591,14.53994 32.53591,32.47549 0,17.93474 -14.56697,32.47536 -32.53591,32.47536 -17.96869,0 -32.53559,-14.5404 -32.53559,-32.47536 z"
         id="path3037"
         inkscape:connector-curvature="0"
         style="fill:#2367a1;fill-opacity:1;stroke-width:0.06228845" />
      <g
         id="g3124"
         transform="matrix(0.00386407,0,0,-0.00427001,123.83594,157.17389)"
         style="opacity:0.92000002;fill:#ffffff;stroke:none">
        <path
           id="path3126"
           d="m 4967,6583 -758,-1716 61,-61 c 34,-34 70,-75 81,-92 226,-332 86,-755 -307,-929 -114,-50 -207,-69 -354,-69 -180,0 -291,29 -440,116 -296,172 -412,516 -269,801 33,65 133,197 149,197 6,0 10,6 10,13 0,15 -1396,3117 -1408,3129 -4,4 -365,-691 -802,-1544 C 369,5334 128,4855 113,4801 44,4567 10,4304 10,4012 c -1,-213 6,-303 40,-552 34,-248 74,-352 184,-480 299,-347 830,-579 2061,-899 149,-38 459,-118 690,-176 1191,-302 1516,-394 1842,-525 l 129,-51 -4,-665 -5,-664 h 827 826 l 1,458 c 1,251 5,551 8,666 l 6,208 85,31 c 47,16 200,72 340,125 559,207 840,293 1728,526 1112,293 1461,405 1817,586 316,160 513,320 609,494 106,191 138,424 138,1011 0,433 -7,499 -73,742 -39,143 -48,165 -301,668 -920,1835 -1241,2466 -1248,2454 -9,-15 -1429,-3066 -1437,-3086 -3,-7 20,-35 50,-63 157,-144 234,-366 193,-560 -64,-302 -354,-525 -710,-546 -439,-26 -818,278 -819,657 0,162 58,300 180,430 l 34,36 -736,1729 c -406,951 -738,1730 -738,1731 -1,1 -343,-771 -760,-1714 z"
           inkscape:connector-curvature="0"
           style="fill:#ffffff" />
      </g>
    </g>
  </g>
</svg>
